<svg width="18" height="14" viewBox="0 0 18 14" fill="none" xmlns="http://www.w3.org/2000/svg">
<path d="M1.5 13.4C1.06667 13.4 0.708333 13.2583 0.425 12.975C0.141667 12.6917 0 12.3333 0 11.9V1.5C0 1.06667 0.141667 0.708333 0.425 0.425C0.708333 0.141667 1.06667 0 1.5 0H15.9C16.3333 0 16.6917 0.141667 16.975 0.425C17.2583 0.708333 17.4 1.06667 17.4 1.5V11.9C17.4 12.3333 17.2583 12.6917 16.975 12.975C16.6917 13.2583 16.3333 13.4 15.9 13.4H1.5ZM8.7 6.55L0.7 1.25V11.9C0.7 12.1333 0.775 12.325 0.925 12.475C1.075 12.625 1.26667 12.7 1.5 12.7H15.9C16.1333 12.7 16.325 12.625 16.475 12.475C16.625 12.325 16.7 12.1333 16.7 11.9V1.25L8.7 6.55ZM8.7 5.7L16.3 0.7H1.1L8.7 5.7ZM0.7 1.25V0.7V11.9C0.7 12.1333 0.775 12.325 0.925 12.475C1.075 12.625 1.26667 12.7 1.5 12.7H0.7V1.25Z" fill="#9B8E6C"/>
</svg>
