<svg width="57" height="56" viewBox="0 0 57 56" fill="none" xmlns="http://www.w3.org/2000/svg">
<path d="M28.2581 24.3871C24.9048 24.3871 22.0345 23.1933 19.6469 20.8058C17.2587 18.4175 16.0645 15.5468 16.0645 12.1935C16.0645 8.84032 17.2587 5.96957 19.6469 3.58129C22.0345 1.19376 24.9048 0 28.2581 0C31.6113 0 34.482 1.19376 36.8703 3.58129C39.2579 5.96957 40.4516 8.84032 40.4516 12.1935C40.4516 15.5468 39.2579 18.4175 36.8703 20.8058C34.482 23.1933 31.6113 24.3871 28.2581 24.3871ZM0 56V50.129C0 48.4731 0.508065 46.9113 1.52419 45.4435C2.54032 43.9758 3.91398 42.828 5.64516 42C9.78495 40.043 12.9059 38.5753 17.0081 37.5968C21.1102 36.6183 24.1935 36.129 28.2581 36.129C32.3226 36.129 35.4059 36.6183 39.5081 37.5968C43.6102 38.5753 46.7312 40.043 50.871 42C52.6021 42.828 53.9758 43.9758 54.9919 45.4435C56.0081 46.9113 56.5161 48.4731 56.5161 50.129V56H0ZM3.16129 52.8387H53.3548V50.129C53.3548 49.0753 52.9973 48.078 52.2823 47.1371C51.5672 46.1962 50.5699 45.3871 49.2903 44.7097C45.6774 42.9785 42.9256 41.6425 39.035 40.7016C35.1451 39.7607 32.2195 39.2903 28.2581 39.2903C24.2967 39.2903 21.371 39.7607 17.4811 40.7016C13.5905 41.6425 10.8387 42.9785 7.22581 44.7097C5.94624 45.3871 4.94892 46.1962 4.23387 47.1371C3.51882 48.078 3.16129 49.0753 3.16129 50.129V52.8387ZM28.2581 21.2258C30.7419 21.2258 32.8683 20.3414 34.6371 18.5726C36.4059 16.8038 37.2903 14.6774 37.2903 12.1935C37.2903 9.70968 36.4059 7.58333 34.6371 5.81452C32.8683 4.0457 30.7419 3.16129 28.2581 3.16129C25.7742 3.16129 23.6479 4.0457 21.879 5.81452C20.1102 7.58333 19.2258 9.70968 19.2258 12.1935C19.2258 14.6774 20.1102 16.8038 21.879 18.5726C23.6479 20.3414 25.7742 21.2258 28.2581 21.2258Z" fill="#9B8E6C"/>
</svg>
