<svg width="20" height="18" viewBox="0 0 20 18" fill="none" xmlns="http://www.w3.org/2000/svg">
<path d="M19.4121 0.247447C19.0746 -0.0387535 18.5445 -0.0797036 17.9964 0.140347H17.9955C17.419 0.371648 1.67797 7.12347 1.03717 7.39932C0.920617 7.43982 -0.0972863 7.81962 0.00756401 8.66562C0.101164 9.42837 0.919267 9.74428 1.01917 9.78073L5.02103 11.151C5.28653 12.0348 6.26528 15.2955 6.48173 15.9921C6.61673 16.4263 6.83678 16.9969 7.22244 17.1144C7.56084 17.2449 7.89744 17.1256 8.11524 16.9546L10.5619 14.6853L14.5116 17.7655L14.6056 17.8218C14.8738 17.9406 15.1308 18 15.376 18C15.5655 18 15.7473 17.9645 15.921 17.8934C16.5127 17.6503 16.7494 17.0865 16.7742 17.0226L19.7244 1.6879C19.9044 0.868899 19.6542 0.452198 19.4121 0.247447ZM8.55039 11.6991L7.20039 15.2991L5.85038 10.7991L16.2004 3.14906L8.55039 11.6991Z" fill="#9B8E6C"/>
</svg>
