<svg width="22" height="24" viewBox="0 0 22 24" fill="none" xmlns="http://www.w3.org/2000/svg">
<path d="M3.97351 24C3.31126 24 2.74834 23.7682 2.28477 23.3046C1.82119 22.8411 1.5894 22.2781 1.5894 21.6159V2.22517H0V1.11258H5.8808V0H15.4172V1.11258H21.298V2.22517H19.7086V21.6159C19.7086 22.3046 19.4834 22.8742 19.0331 23.3245C18.5828 23.7748 18.0132 24 17.3245 24H3.97351ZM18.596 2.22517H2.70199V21.6159C2.70199 21.9868 2.82119 22.2914 3.0596 22.5298C3.29801 22.7682 3.60265 22.8874 3.97351 22.8874H17.3245C17.6424 22.8874 17.9338 22.755 18.1987 22.4901C18.4636 22.2252 18.596 21.9338 18.596 21.6159V2.22517ZM7.54967 19.7086H8.66225V5.40397H7.54967V19.7086ZM12.6358 19.7086H13.7483V5.40397H12.6358V19.7086Z" fill="#B38E6A"/>
</svg>
