<svg width="56" height="56" viewBox="0 0 56 56" fill="none" xmlns="http://www.w3.org/2000/svg">
<path d="M6.37241 56C5.26143 56 4.16299 55.8712 3.0771 55.6135C1.99122 55.3558 0.965517 54.9693 0 54.4539C1.15862 53.3587 2.05977 52.0864 2.70345 50.6369C3.34713 49.1875 3.66897 47.4964 3.66897 45.5638C3.66897 43.6956 4.29655 42.1334 5.55172 40.8771C6.8069 39.6209 8.36782 38.9928 10.2345 38.9928C12.1011 38.9928 13.6621 39.6209 14.9172 40.8771C16.1724 42.1334 16.8 43.6956 16.8 45.5638C16.8 48.4337 15.7788 50.8904 13.7364 52.9339C11.6947 54.978 9.24 56 6.37241 56ZM6.37241 53.2943C8.49655 53.2943 10.3149 52.5374 11.8276 51.0235C13.3402 49.5096 14.0966 47.6897 14.0966 45.5638C14.0966 44.4686 13.7264 43.5506 12.9862 42.8098C12.246 42.0689 11.3287 41.6985 10.2345 41.6985C9.14023 41.6985 8.22299 42.0689 7.48276 42.8098C6.74253 43.5506 6.37241 44.4686 6.37241 45.5638C6.37241 47.0455 6.1954 48.3983 5.84138 49.6223C5.48736 50.8463 5.02069 52.0059 4.44138 53.101C4.76322 53.2299 5.08506 53.2943 5.4069 53.2943H6.37241ZM24.1379 37.2534L18.731 31.8421L49.4345 1.1132C50.1425 0.404565 51.0276 0.0341432 52.0897 0.00193263C53.1517 -0.0302779 54.069 0.340144 54.8414 1.1132C55.6138 1.88625 56 2.78815 56 3.81888C56 4.84962 55.6138 5.75152 54.8414 6.52457L24.1379 37.2534Z" fill="#9B8E6C"/>
</svg>
