<svg width="59" height="59" viewBox="0 0 59 59" fill="none" xmlns="http://www.w3.org/2000/svg">
<path d="M8.17237 50.7338C5.58446 48.0983 3.57541 45.0957 2.14525 41.7263C0.715083 38.3568 0 34.8731 0 31.275C0 27.6468 0.698057 24.0186 2.09417 20.3904C3.49028 16.7621 5.72066 13.4078 8.7853 10.3272C11.4413 7.65738 14.8295 5.58657 18.9497 4.11474C23.0699 2.64292 27.4456 1.59896 32.0766 0.982844C36.7076 0.366733 41.3556 0.0415631 46.0207 0.00733466C50.6857 -0.0268938 54.8911 0.0586773 58.6368 0.264048C58.9092 3.96072 59.0284 8.1537 58.9943 12.843C58.9603 17.5323 58.6027 22.2045 57.9217 26.8595C57.2407 31.5146 56.168 35.9129 54.7038 40.0546C53.2396 44.1962 51.2135 47.5677 48.6256 50.1691C45.6291 53.2496 42.3772 55.4916 38.8699 56.895C35.3625 58.2983 31.8634 59 28.3724 59C24.7126 59 21.0779 58.2812 17.4685 56.8436C13.859 55.406 10.7603 53.3694 8.17237 50.7338ZM13.6887 51.6067C15.868 53.1127 18.2687 54.2423 20.8906 54.9953C23.5126 55.7483 26.0154 56.1248 28.399 56.1248C31.5781 56.1248 34.7224 55.5087 37.832 54.2765C40.9416 53.0443 43.8584 50.9906 46.5825 48.1154C47.7955 46.8831 49.0254 45.1546 50.2724 42.9298C51.5193 40.7049 52.5977 37.7955 53.5076 34.2015C54.4175 30.6075 55.108 26.2605 55.5793 21.1605C56.0513 16.0605 56.1851 9.98492 55.9808 2.93386C52.6437 2.79695 48.847 2.77984 44.5905 2.88252C40.3341 2.98521 36.0776 3.36172 31.8212 4.01206C27.5647 4.6624 23.5807 5.63791 19.8691 6.93859C16.1575 8.23927 13.212 9.98492 11.0327 12.1755C8.03617 15.1876 5.92497 18.3538 4.69912 21.6739C3.47326 24.9941 2.86033 28.0575 2.86033 30.8643C2.86033 34.4925 3.59244 37.9495 5.05666 41.2355C6.52087 44.5214 8.44479 47.157 10.8284 49.1422C12.1905 44.4872 14.4889 40.0204 17.7238 35.7418C20.9587 31.4632 25.8111 27.3045 32.2809 23.2655C27.6499 27.3045 23.802 31.5146 20.7374 35.8958C17.6728 40.2771 15.3232 45.514 13.6887 51.6067Z" fill="#9B8E6C"/>
</svg>
