<?xml version="1.0" encoding="UTF-8"?>
<svg id="Layer_2" data-name="Layer 2" xmlns="http://www.w3.org/2000/svg" viewBox="0 0 130.64 130.64">
  <defs>
    <style>
      .cls-1 {
        fill: none;
      }

      .cls-1, .cls-2, .cls-3, .cls-4 {
        stroke-width: 0px;
      }

      .cls-2 {
        fill: #151011;
      }

      .cls-3 {
        fill: #b38e6a;
      }

      .cls-4 {
        fill: #fff;
      }
    </style>
  </defs>
  <g id="Layer_1-2" data-name="Layer 1">
    <circle class="cls-4" cx="65.32" cy="65.32" r="65.32"/>
    <g>
      <path class="cls-1" d="m73.58,90.13c-.8.06-1.6.05-2.4.05-1.07,0-2.14-.03-3.21-.02-.69,0-1.36.15-2,.41-.48.19-.78.52-.77,1.08.02.62,0,1.25.03,1.87.01.39.11.76.4,1.1.13.01.27.05.42.04.3-.02.59-.06.89-.09.95-.12,1.9-.17,2.84.06.49.12.92.05,1.36-.2,1.18-.69,2.37-1.35,3.57-2.02.52-.29,1.04-.58,1.58-.82,1.28-.55,2.58-1.05,3.87-1.59.31-.13.67-.17.91-.47-.73.05-1.44.09-2.15.15-1.78.15-3.55.32-5.33.46Z"/>
      <path class="cls-1" d="m61.57,42.56c.61-.01,1.11-.52,1.12-1.12.01-.62-.52-1.16-1.14-1.16-.64,0-1.14.51-1.14,1.15,0,.64.51,1.14,1.16,1.13Z"/>
      <path class="cls-1" d="m74.56,42.56c.63.01,1.16-.48,1.17-1.11.02-.62-.49-1.16-1.11-1.17-.63-.02-1.15.48-1.17,1.11-.02.63.48,1.16,1.11,1.17Z"/>
      <path class="cls-2" d="m99.47,78.14c-.56-.46-1.17-.64-1.91-.47-1.59.37-3.06.93-4.21,2.16-.83.89-1.72,1.73-2.6,2.58-.3.29-.61.57-.94.82-2.05,1.53-4.11,3.05-6.16,4.58-.13.1-.28.18-.43.27-.13-.21.03-.32.06-.45.1-.37.27-.73.3-1.11.05-.56.04-1.13-.02-1.69-.15-1.5-1.48-2.76-2.96-2.86-1.57-.11-3.15-.21-4.72-.31-.98-.06-1.96-.13-2.94-.17-.56-.02-1.13-.01-1.69.03-2.74.21-5.48.05-8.19-.34-1.94-.28-3.85-.74-5.78-1.09-1.61-.29-3.22-.58-4.84-.81-1.47-.21-2.95-.34-4.44-.47-.92-.08-1.84-.18-2.76-.14-1.28.05-2.54.25-3.79.55-4.44,1.05-8.43,3.05-12.01,5.86-.87.68-1.68,1.42-2.38,2.28-.19.23-.34.47-.53.73,3.43,4.92,6.83,9.8,10.26,14.73.47-.16.84-.28,1.2-.4,1.73-.58,3.5-.96,5.34-.84.3.02.6.03.89.01,1.32-.07,2.61.17,3.89.45,2.73.6,5.41,1.4,8.09,2.16,3,.85,6,1.7,9.07,2.31,1,.2,2,.32,3.01.26,1.05-.06,2.06-.25,2.95-.87.61-.42,1.26-.79,1.89-1.19,3.27-2.13,6.48-4.34,9.58-6.7,1.44-1.1,2.88-2.21,4.23-3.43,4.76-4.28,8.88-9.12,12.48-14.41.12-.17.24-.34.34-.53.3-.56.19-1.12-.29-1.52Zm-19.32,11.85c-1.29.54-2.59,1.04-3.87,1.59-.54.23-1.06.53-1.58.82-1.19.66-2.39,1.33-3.57,2.02-.44.25-.87.33-1.36.2-.94-.24-1.89-.18-2.84-.06-.29.04-.59.07-.89.09-.14,0-.29-.02-.42-.04-.28-.33-.38-.71-.4-1.1-.02-.62,0-1.25-.03-1.87-.02-.56.29-.89.77-1.08.64-.25,1.31-.4,2-.41,1.07,0,2.14.02,3.21.02.8,0,1.61,0,2.4-.05,1.78-.13,3.55-.31,5.33-.46.71-.06,1.42-.1,2.15-.15-.24.3-.6.34-.91.47Z"/>
      <path class="cls-3" d="m36.71,103.83c-3.58-5.05-7.16-10.09-10.74-15.14-.15-.22-.3-.45-.49-.64-.37-.38-.83-.45-1.3-.22-.19.09-.36.21-.53.32-.5.32-1,.65-1.49.98-.52.34-1.05.68-1.56,1.03-.7.49-.79,1.02-.32,1.75.08.12.17.24.25.37,3.53,5.08,7.06,10.16,10.59,15.24.12.17.24.34.37.51.22.28.51.4.96.41.24.02.52-.14.8-.32,1.1-.71,2.2-1.42,3.29-2.14.1-.06.2-.13.29-.2.43-.36.54-.87.28-1.36-.11-.21-.26-.4-.4-.59Z"/>
      <path class="cls-2" d="m104.98,73.47c-.21-.1-.45-.16-.68-.18-.41-.04-.82-.05-1.23-.05-23.25,0-46.51,0-69.76,0-.44,0-.89.02-1.33.06-.2.02-.4.08-.58.17-.43.21-.57.55-.43,1.01.15.54.49.97.85,1.39q.78.92,2,.92c22.91,0,45.83,0,68.74,0h1.08c.6-.51,1.1-1.02,1.47-1.64.15-.26.27-.55.33-.85.08-.4-.08-.66-.44-.83Z"/>
      <path class="cls-3" d="m50.88,46.95c11.52,0,23.04,0,34.56,0,.05,0,.1-.03.18-.06.06-.5.11-1.01-.01-1.47-.59-.22-1.14-.41-1.68-.64-.56-.24-1.09-.56-1.58-.95-.47-.38-.92-.79-1.38-1.19-.23.22-.44.43-.66.63-2.18,1.94-4.64,2.66-7.34,2.14-1.68-.32-3.17-1.17-4.47-2.46-.11-.11-.22-.2-.35-.31-.2.19-.37.36-.54.52-2.21,2.03-4.7,2.79-7.47,2.26-1.68-.32-3.17-1.16-4.47-2.46-.11-.11-.23-.2-.33-.29-1.92,1.68-2.03,1.84-4.66,2.79-.04.48-.05.96,0,1.45.08.03.13.06.19.06Z"/>
      <path class="cls-2" d="m51.31,44.04c1.33-.4,2.52-1.13,3.58-2.15.14-.14.28-.27.43-.4.5.42.97.84,1.45,1.23.48.38,1,.66,1.53.92.55.26,1.12.45,1.71.58.57.13,1.14.17,1.72.18.6,0,1.19-.05,1.77-.18.58-.13,1.15-.32,1.71-.58.53-.25,1.06-.54,1.53-.92.49-.39.96-.81,1.43-1.21.03.01.05.01.06.03.15.13.29.27.43.41,2.28,2.13,4.87,2.86,7.73,2.26,1.6-.34,3.02-1.17,4.26-2.41.11-.11.23-.2.35-.31.16.16.31.3.45.43,1.08,1.04,2.29,1.76,3.64,2.16.17.05.35.14.56.03,0-.19.02-4.1.02-7.55,0-.22,0-.44-.03-.65-.12-.89-.57-1.48-1.29-1.8-.29-.13-.58-.12-.88-.12-3.71,0-12.29-.01-13.33,0-.32,0-1.06.09-1.74-.32-.48-.44-1.84-1.46-1.84-1.46l-.03,1.72s-11.48.06-13.71.06c-.22,0-.45,0-.66.06-.92.25-1.5,1.13-1.5,2.29,0,3.61.02,7.68.03,7.81.23.03.42-.04.62-.1Zm29.82-8.56c.52,0,.95.42.95.95s-.42.95-.95.95-.95-.42-.95-.95.42-.95.95-.95Zm-6.48,0c.52,0,.95.42.95.95s-.42.95-.95.95-.95-.42-.95-.95.42-.95.95-.95Zm-.03,4.8c.62.02,1.13.55,1.11,1.17-.02.62-.55,1.12-1.17,1.11-.63-.01-1.12-.54-1.11-1.17.02-.63.54-1.13,1.17-1.11Zm-6.45-4.8c.52,0,.95.42.95.95s-.42.95-.95.95-.95-.42-.95-.95.42-.95.95-.95Zm-6.48,0c.52,0,.95.42.95.95s-.42.95-.95.95-.95-.42-.95-.95.42-.95.95-.95Zm-.14,4.8c.62,0,1.15.54,1.14,1.16-.01.6-.52,1.11-1.12,1.12-.64.01-1.15-.49-1.16-1.13,0-.64.5-1.15,1.14-1.15Zm-6.33-4.8c.52,0,.95.42.95.95s-.42.95-.95.95-.95-.42-.95-.95.42-.95.95-.95Z"/>
      <path class="cls-2" d="m67.29,21.59c.65.77.89,1.83.96,2.18.34-.26.89-1.19,1.07-2.05.11-.66,0-1.3-.35-1.88-.09-.15-.19-.29-.28-.44-.36-.57-.54-1.18-.52-1.85,0-.17,0-.34,0-.58-.44.27-.7.51-.98.91-.52.75-.69,1.57-.47,2.47.11.45.31.86.56,1.24Z"/>
      <path class="cls-3" d="m66.87,26.01l3.27,2.32v-2.91s-.66-.52-2.06-.52c-.86,0-1.24.34-1.37.46-.13.13-.2.34-.05.49.06.06.2.16.2.16Z"/>
      <path class="cls-3" d="m66.87,31.38c1,.72,3.15,2.29,3.25,2.33.02-.13.02-1.15.02-1.57-1.87-1.39-3.09-2.19-3.57-2.57-.03.38-.01.8-.04,1.16-.02.29.09.48.33.65Z"/>
      <path class="cls-2" d="m66.87,28.64c1,.72,3.15,2.29,3.25,2.33.02-.13.02-1.15.02-1.57-1.87-1.39-3.09-2.19-3.57-2.57-.03.38-.01.8-.04,1.16-.02.29.09.48.33.65Z"/>
      <path class="cls-2" d="m93.15,50.05c0-.9-.73-1.63-1.63-1.63h-46.7c-.9,0-1.63.73-1.63,1.63v10.29h49.95v-10.29Zm-47.11,2.39c-.56,0-1.02-.45-1.02-1.02s.45-1.02,1.02-1.02,1.02.45,1.02,1.02-.45,1.02-1.02,1.02Zm2.76,4.68c-.56,0-1.02-.45-1.02-1.02s.45-1.02,1.02-1.02,1.02.45,1.02,1.02-.45,1.02-1.02,1.02Zm4.62-4.68c-.56,0-1.02-.45-1.02-1.02s.45-1.02,1.02-1.02,1.02.45,1.02,1.02-.45,1.02-1.02,1.02Zm3.13,4.68c-.56,0-1.02-.45-1.02-1.02s.45-1.02,1.02-1.02,1.02.45,1.02,1.02-.45,1.02-1.02,1.02Zm4.25-4.68c-.56,0-1.02-.45-1.02-1.02s.45-1.02,1.02-1.02,1.02.45,1.02,1.02-.45,1.02-1.02,1.02Zm3.5,4.68c-.56,0-1.02-.45-1.02-1.02s.45-1.02,1.02-1.02,1.02.45,1.02,1.02-.45,1.02-1.02,1.02Zm3.88-4.68c-.56,0-1.02-.45-1.02-1.02s.45-1.02,1.02-1.02,1.02.45,1.02,1.02-.45,1.02-1.02,1.02Zm3.88,4.68c-.56,0-1.02-.45-1.02-1.02s.45-1.02,1.02-1.02,1.02.45,1.02,1.02-.45,1.02-1.02,1.02Zm3.5-4.68c-.56,0-1.02-.45-1.02-1.02s.45-1.02,1.02-1.02,1.02.45,1.02,1.02-.45,1.02-1.02,1.02Zm4.25,4.68c-.56,0-1.02-.45-1.02-1.02s.45-1.02,1.02-1.02,1.02.45,1.02,1.02-.45,1.02-1.02,1.02Zm3.13-4.68c-.56,0-1.02-.45-1.02-1.02s.45-1.02,1.02-1.02,1.02.45,1.02,1.02-.45,1.02-1.02,1.02Zm4.62,4.68c-.56,0-1.02-.45-1.02-1.02s.45-1.02,1.02-1.02,1.02.45,1.02,1.02-.45,1.02-1.02,1.02Zm2.76-4.68c-.56,0-1.02-.45-1.02-1.02s.45-1.02,1.02-1.02,1.02.45,1.02,1.02-.45,1.02-1.02,1.02Z"/>
      <path class="cls-3" d="m101.92,63.46c0-.9-.73-1.63-1.63-1.63H36.06c-.9,0-1.63.73-1.63,1.63v8.28h67.49v-8.28Zm-63.91,6.8c-.56,0-1.02-.45-1.02-1.02s.45-1.02,1.02-1.02,1.02.45,1.02,1.02-.45,1.02-1.02,1.02Zm6.03,0c-.56,0-1.02-.45-1.02-1.02s.45-1.02,1.02-1.02,1.02.45,1.02,1.02-.45,1.02-1.02,1.02Zm6.03,0c-.56,0-1.02-.45-1.02-1.02s.45-1.02,1.02-1.02,1.02.45,1.02,1.02-.45,1.02-1.02,1.02Zm6.03,0c-.56,0-1.02-.45-1.02-1.02s.45-1.02,1.02-1.02,1.02.45,1.02,1.02-.45,1.02-1.02,1.02Zm6.03,0c-.56,0-1.02-.45-1.02-1.02s.45-1.02,1.02-1.02,1.02.45,1.02,1.02-.45,1.02-1.02,1.02Zm6.03,0c-.56,0-1.02-.45-1.02-1.02s.45-1.02,1.02-1.02,1.02.45,1.02,1.02-.45,1.02-1.02,1.02Zm6.03,0c-.56,0-1.02-.45-1.02-1.02s.45-1.02,1.02-1.02,1.02.45,1.02,1.02-.45,1.02-1.02,1.02Zm6.03,0c-.56,0-1.02-.45-1.02-1.02s.45-1.02,1.02-1.02,1.02.45,1.02,1.02-.45,1.02-1.02,1.02Zm6.03,0c-.56,0-1.02-.45-1.02-1.02s.45-1.02,1.02-1.02,1.02.45,1.02,1.02-.45,1.02-1.02,1.02Zm6.03,0c-.56,0-1.02-.45-1.02-1.02s.45-1.02,1.02-1.02,1.02.45,1.02,1.02-.45,1.02-1.02,1.02Zm6.03,0c-.56,0-1.02-.45-1.02-1.02s.45-1.02,1.02-1.02,1.02.45,1.02,1.02-.45,1.02-1.02,1.02Z"/>
      <path class="cls-2" d="m38.01,68.23c-.56,0-1.02.45-1.02,1.02s.45,1.02,1.02,1.02,1.02-.45,1.02-1.02-.45-1.02-1.02-1.02Z"/>
      <path class="cls-2" d="m44.04,68.23c-.56,0-1.02.45-1.02,1.02s.45,1.02,1.02,1.02,1.02-.45,1.02-1.02-.45-1.02-1.02-1.02Z"/>
      <path class="cls-2" d="m50.07,68.23c-.56,0-1.02.45-1.02,1.02s.45,1.02,1.02,1.02,1.02-.45,1.02-1.02-.45-1.02-1.02-1.02Z"/>
      <path class="cls-2" d="m56.11,68.23c-.56,0-1.02.45-1.02,1.02s.45,1.02,1.02,1.02,1.02-.45,1.02-1.02-.45-1.02-1.02-1.02Z"/>
      <path class="cls-2" d="m62.14,68.23c-.56,0-1.02.45-1.02,1.02s.45,1.02,1.02,1.02,1.02-.45,1.02-1.02-.45-1.02-1.02-1.02Z"/>
      <path class="cls-2" d="m68.17,68.23c-.56,0-1.02.45-1.02,1.02s.45,1.02,1.02,1.02,1.02-.45,1.02-1.02-.45-1.02-1.02-1.02Z"/>
      <path class="cls-2" d="m74.2,68.23c-.56,0-1.02.45-1.02,1.02s.45,1.02,1.02,1.02,1.02-.45,1.02-1.02-.45-1.02-1.02-1.02Z"/>
      <path class="cls-2" d="m80.24,68.23c-.56,0-1.02.45-1.02,1.02s.45,1.02,1.02,1.02,1.02-.45,1.02-1.02-.45-1.02-1.02-1.02Z"/>
      <path class="cls-2" d="m86.27,68.23c-.56,0-1.02.45-1.02,1.02s.45,1.02,1.02,1.02,1.02-.45,1.02-1.02-.45-1.02-1.02-1.02Z"/>
      <path class="cls-2" d="m92.3,68.23c-.56,0-1.02.45-1.02,1.02s.45,1.02,1.02,1.02,1.02-.45,1.02-1.02-.45-1.02-1.02-1.02Z"/>
      <path class="cls-2" d="m98.34,68.23c-.56,0-1.02.45-1.02,1.02s.45,1.02,1.02,1.02,1.02-.45,1.02-1.02-.45-1.02-1.02-1.02Z"/>
      <path class="cls-3" d="m46.04,50.41c-.56,0-1.02.45-1.02,1.02s.45,1.02,1.02,1.02,1.02-.45,1.02-1.02-.45-1.02-1.02-1.02Z"/>
      <path class="cls-3" d="m53.42,50.41c-.56,0-1.02.45-1.02,1.02s.45,1.02,1.02,1.02,1.02-.45,1.02-1.02-.45-1.02-1.02-1.02Z"/>
      <path class="cls-3" d="m60.79,50.41c-.56,0-1.02.45-1.02,1.02s.45,1.02,1.02,1.02,1.02-.45,1.02-1.02-.45-1.02-1.02-1.02Z"/>
      <path class="cls-3" d="m68.17,50.41c-.56,0-1.02.45-1.02,1.02s.45,1.02,1.02,1.02,1.02-.45,1.02-1.02-.45-1.02-1.02-1.02Z"/>
      <path class="cls-3" d="m75.55,50.41c-.56,0-1.02.45-1.02,1.02s.45,1.02,1.02,1.02,1.02-.45,1.02-1.02-.45-1.02-1.02-1.02Z"/>
      <path class="cls-3" d="m82.93,50.41c-.56,0-1.02.45-1.02,1.02s.45,1.02,1.02,1.02,1.02-.45,1.02-1.02-.45-1.02-1.02-1.02Z"/>
      <path class="cls-3" d="m90.31,50.41c-.56,0-1.02.45-1.02,1.02s.45,1.02,1.02,1.02,1.02-.45,1.02-1.02-.45-1.02-1.02-1.02Z"/>
      <path class="cls-4" d="m48.8,55.08c-.56,0-1.02.45-1.02,1.02s.45,1.02,1.02,1.02,1.02-.45,1.02-1.02-.45-1.02-1.02-1.02Z"/>
      <path class="cls-4" d="m56.55,55.08c-.56,0-1.02.45-1.02,1.02s.45,1.02,1.02,1.02,1.02-.45,1.02-1.02-.45-1.02-1.02-1.02Z"/>
      <path class="cls-4" d="m64.3,55.08c-.56,0-1.02.45-1.02,1.02s.45,1.02,1.02,1.02,1.02-.45,1.02-1.02-.45-1.02-1.02-1.02Z"/>
      <path class="cls-4" d="m72.05,55.08c-.56,0-1.02.45-1.02,1.02s.45,1.02,1.02,1.02,1.02-.45,1.02-1.02-.45-1.02-1.02-1.02Z"/>
      <path class="cls-4" d="m79.8,55.08c-.56,0-1.02.45-1.02,1.02s.45,1.02,1.02,1.02,1.02-.45,1.02-1.02-.45-1.02-1.02-1.02Z"/>
      <circle class="cls-4" cx="87.55" cy="56.1" r="1.02"/>
      <path class="cls-3" d="m55.22,37.38c.52,0,.95-.42.95-.95s-.42-.95-.95-.95-.95.42-.95.95.42.95.95.95Z"/>
      <path class="cls-3" d="m61.69,37.38c.52,0,.95-.42.95-.95s-.42-.95-.95-.95-.95.42-.95.95.42.95.95.95Z"/>
      <path class="cls-3" d="m68.17,37.38c.52,0,.95-.42.95-.95s-.42-.95-.95-.95-.95.42-.95.95.42.95.95.95Z"/>
      <circle class="cls-3" cx="74.65" cy="36.43" r=".95"/>
      <circle class="cls-3" cx="81.13" cy="36.43" r=".95"/>
    </g>
  </g>
</svg>