<svg width="10" height="17" viewBox="0 0 10 17" fill="none" xmlns="http://www.w3.org/2000/svg">
<path d="M1.25 16.1667C0.888889 16.1667 0.590278 16.0486 0.354167 15.8125C0.118056 15.5764 0 15.2778 0 14.9167V1.25C0 0.888889 0.118056 0.590278 0.354167 0.354167C0.590278 0.118056 0.888889 0 1.25 0H8.25C8.61111 0 8.90972 0.118056 9.14583 0.354167C9.38194 0.590278 9.5 0.888889 9.5 1.25V14.9167C9.5 15.2778 9.38194 15.5764 9.14583 15.8125C8.90972 16.0486 8.61111 16.1667 8.25 16.1667H1.25ZM0.583333 12.5833V14.9167C0.583333 15.0833 0.652778 15.2361 0.791667 15.375C0.930556 15.5139 1.08333 15.5833 1.25 15.5833H8.25C8.41667 15.5833 8.56944 15.5139 8.70833 15.375C8.84722 15.2361 8.91667 15.0833 8.91667 14.9167V12.5833H0.583333ZM4.75 14.6667C4.90278 14.6667 5.03819 14.6076 5.15625 14.4896C5.27431 14.3715 5.33333 14.2361 5.33333 14.0833C5.33333 13.9306 5.27431 13.7951 5.15625 13.6771C5.03819 13.559 4.90278 13.5 4.75 13.5C4.59722 13.5 4.46181 13.559 4.34375 13.6771C4.22569 13.7951 4.16667 13.9306 4.16667 14.0833C4.16667 14.2361 4.22569 14.3715 4.34375 14.4896C4.46181 14.6076 4.59722 14.6667 4.75 14.6667ZM0.583333 12H8.91667V2.54167H0.583333V12ZM0.583333 1.95833H8.91667V1.25C8.91667 1.08333 8.84722 0.930556 8.70833 0.791667C8.56944 0.652778 8.41667 0.583333 8.25 0.583333H1.25C1.08333 0.583333 0.930556 0.652778 0.791667 0.791667C0.652778 0.930556 0.583333 1.08333 0.583333 1.25V1.95833Z" fill="#9B8E6C"/>
</svg>
