<svg width="19" height="19" viewBox="0 0 19 19" fill="none" xmlns="http://www.w3.org/2000/svg">
<path d="M9.50006 0C4.26184 0 6.13054e-05 4.26178 6.13054e-05 9.5C6.13054e-05 11.1357 0.422605 12.744 1.22391 14.1633L0.0153439 18.4754C-0.0243083 18.6171 0.0141048 18.7691 0.11654 18.8744C0.195431 18.9558 0.302822 19 0.413105 19C0.446148 19 0.479605 18.9959 0.512235 18.988L5.01276 17.8732C6.38695 18.6109 7.93463 19 9.50006 19C14.7383 19 19.0001 14.7382 19.0001 9.5C19.0001 4.26178 14.7383 0 9.50006 0ZM14.279 12.8523C14.0758 13.4148 13.101 13.9282 12.6326 13.9972C12.2121 14.0588 11.6801 14.0852 11.0961 13.9018C10.7421 13.7903 10.2877 13.6424 9.70576 13.3942C7.2593 12.3508 5.66165 9.91841 5.53939 9.75774C5.41754 9.59706 4.54354 8.45211 4.54354 7.26709C4.54354 6.08207 5.17343 5.49926 5.3973 5.25804C5.62117 5.01683 5.8851 4.95652 6.04784 4.95652C6.21058 4.95652 6.37291 4.95859 6.51541 4.9652C6.66534 4.97263 6.8665 4.90861 7.06434 5.37865C7.26756 5.86109 7.75537 7.04611 7.81567 7.16713C7.8768 7.28774 7.91728 7.42859 7.83632 7.58926C7.75537 7.74993 7.71489 7.8503 7.59263 7.99115C7.47037 8.132 7.33654 8.30507 7.22667 8.41328C7.10441 8.53348 6.9776 8.66359 7.11969 8.9048C7.26178 9.14602 7.75124 9.93452 8.47654 10.5731C9.40795 11.3934 10.194 11.6478 10.4377 11.7684C10.6814 11.889 10.8239 11.8688 10.966 11.7081C11.108 11.547 11.5756 11.0047 11.7379 10.7639C11.9003 10.5231 12.063 10.5628 12.2869 10.6433C12.5107 10.7234 13.7098 11.3058 13.9535 11.4264C14.1972 11.547 14.3599 11.6073 14.4211 11.7077C14.4822 11.8077 14.4822 12.2901 14.279 12.8523Z" fill="#9B8E6C"/>
</svg>
